ffmpeg version 3.4.8-0ubuntu0.2 Copyright (c) 2000-2020 the FFmpeg developers
  built with gcc 7 (Ubuntu 7.5.0-3ubuntu1~18.04)
  configuration: --prefix=/usr --extra-version=0ubuntu0.2 --toolchain=hardened --libdir=/usr/lib/x86_64-linux-gnu --incdir=/usr/include/x86_64-linux-gnu --enable-gpl --disable-stripping --enable-avresample --enable-avisynth --enable-gnutls --enable-ladspa --enable-libass --enable-libbluray --enable-libbs2b --enable-libcaca --enable-libcdio --enable-libflite --enable-libfontconfig --enable-libfreetype --enable-libfribidi --enable-libgme --enable-libgsm --enable-libmp3lame --enable-libmysofa --enable-libopenjpeg --enable-libopenmpt --enable-libopus --enable-libpulse --enable-librubberband --enable-librsvg --enable-libshine --enable-libsnappy --enable-libsoxr --enable-libspeex --enable-libssh --enable-libtheora --enable-libtwolame --enable-libvorbis --enable-libvpx --enable-libwavpack --enable-libwebp --enable-libx265 --enable-libxml2 --enable-libxvid --enable-libzmq --enable-libzvbi --enable-omx --enable-openal --enable-opengl --enable-sdl2 --enable-libdc1394 --enable-libdrm --enable-libiec61883 --enable-chromaprint --enable-frei0r --enable-libopencv --enable-libx264 --enable-shared
  libavutil      55. 78.100 / 55. 78.100
  libavcodec     57.107.100 / 57.107.100
  libavformat    57. 83.100 / 57. 83.100
  libavdevice    57. 10.100 / 57. 10.100
  libavfilter     6.107.100 /  6.107.100
  libavresample   3.  7.  0 /  3.  7.  0
  libswscale      4.  8.100 /  4.  8.100
  libswresample   2.  9.100 /  2.  9.100
  libpostproc    54.  7.100 / 54.  7.100
[rawvideo @ 0x55c45fb32a20] Estimating duration from bitrate, this may be inaccurate
Input #0, rawvideo, from '../../SVC-Encoder-20220109T061506Z-001/SVC-Encoder/Dataset/RollerCoaster/6f_2x2/tile_yuv/f2_t1_480x480.yuv':
  Duration: 00:00:10.00, start: 0.000000, bitrate: 82944 kb/s
    Stream #0:0: Video: rawvideo (I420 / 0x30323449), yuv420p, 480x480, 82944 kb/s, 30 tbr, 30 tbn, 30 tbc
Stream mapping:
  Stream #0:0 -> #0:0 (rawvideo (native) -> h264 (libx264))
Press [q] to stop, [?] for help
[libx264 @ 0x55c45fb3fc60] using cpu capabilities: MMX2 SSE2Fast LZCNT SSSE3 SSE4.2 AVX
[libx264 @ 0x55c45fb3fc60] profile High, level 3.0
Output #0, rawvideo, to 'RollerCoaster_f2_t1_480x480_x264_QP_32.h264':
  Metadata:
    encoder         : Lavf57.83.100
    Stream #0:0: Video: h264 (libx264), yuv420p, 480x480, q=-1--1, 30 fps, 30 tbn, 30 tbc
    Metadata:
      encoder         : Lavc57.107.100 libx264
    Side data:
      cpb: bitrate max/min/avg: 0/0/0 buffer size: 0 vbv_delay: -1
frame=  300 fps=0.0 q=38.0 LPSNR=Y:inf U:inf V:inf *:inf size=       9kB time=00:00:09.93 bitrate=   7.5kbits/s speed=31.6x    
video:9kB audio:0kB subtitle:0kB other streams:0kB global headers:0kB muxing overhead: 0.000000%
[libx264 @ 0x55c45fb3fc60] frame I:2     Avg QP:29.95  size:   806  PSNR Mean Y:51.43 U:50.75 V:53.06 Avg:51.50 Global:51.29
[libx264 @ 0x55c45fb3fc60] frame P:76    Avg QP:33.84  size:    45  PSNR Mean Y:49.42 U:49.64 V:54.06 Avg:49.91 Global:49.74
[libx264 @ 0x55c45fb3fc60] frame B:222   Avg QP:37.67  size:    19  PSNR Mean Y:49.51 U:49.58 V:54.04 Avg:49.98 Global:49.87
[libx264 @ 0x55c45fb3fc60] consecutive B-frames:  1.0%  0.7%  1.0% 97.3%
[libx264 @ 0x55c45fb3fc60] mb I  I16..4: 73.8% 26.2%  0.0%
[libx264 @ 0x55c45fb3fc60] mb P  I16..4:  0.2%  0.2%  0.0%  P16..4:  0.4%  0.1%  0.0%  0.0%  0.0%    skip:99.0%
[libx264 @ 0x55c45fb3fc60] mb B  I16..4:  0.0%  0.0%  0.0%  B16..8:  0.1%  0.0%  0.0%  direct: 0.0%  skip:99.9%  L0:57.6% L1:42.2% BI: 0.2%
[libx264 @ 0x55c45fb3fc60] 8x8 transform intra:30.1% inter:62.1%
[libx264 @ 0x55c45fb3fc60] coded y,uvDC,uvAC intra: 1.1% 3.3% 0.0% inter: 0.0% 0.0% 0.0%
[libx264 @ 0x55c45fb3fc60] i16 v,h,dc,p: 76% 11% 11%  2%
[libx264 @ 0x55c45fb3fc60] i8 v,h,dc,ddl,ddr,vr,hd,vl,hu:  0%  0% 98%  0%  0%  0%  0%  0%  0%
[libx264 @ 0x55c45fb3fc60] i4 v,h,dc,ddl,ddr,vr,hd,vl,hu: 27% 13% 40%  4%  4%  2%  2%  4%  3%
[libx264 @ 0x55c45fb3fc60] i8c dc,h,v,p: 96%  2%  2%  0%
[libx264 @ 0x55c45fb3fc60] Weighted P-Frames: Y:0.0% UV:0.0%
[libx264 @ 0x55c45fb3fc60] ref P L0: 57.8% 19.6% 18.5%  4.0%
[libx264 @ 0x55c45fb3fc60] ref B L0: 78.9% 20.3%  0.8%
[libx264 @ 0x55c45fb3fc60] ref B L1: 91.4%  8.6%
[libx264 @ 0x55c45fb3fc60] PSNR Mean Y:49.497 U:49.604 V:54.038 Avg:49.970 Global:49.848 kb/s:7.41
